<svg xmlns="http://www.w3.org/2000/svg" viewBox="0 0 1140 360" enablebackground="new 0 0 1140 360"><path fill="#1D4380" d="M0 0h1140v360h1140v360z"/><path fill="#fff" d="M191.061 117h3.751v21.607c01.707.1043.796.3146.267h.09c.359 1.453.682 2.493.966 3.122l11.005 24.752h1.842l10.98324.572c.314.719.6371.819.9663.302h.09c.12 1.288.18 3.392.18 6.312v21.562h3.639v32.209h4.986l9.883 22.461c.764 1.722 1.258 3.01 1.482 3.863h.135c.6441.767 1.163.084 1.553.953l10.08522.371h4.717v32.209zm9.03228.84c.659 01.221.2251.685.674.464.449.6961.018.6961.707 0.688.2321.261.6961.718.464.457 1.025.685 1.685.685.674 0 1.247.229 1.718.685.472.457.708 1.03.708 1.718 0 .659.236 1.221.708 1.685.472.4641.044.6961.718.696zm1.797 28.84h3.684v23h3.684v23zm22.3071.056c1.767 1.0633.863 1.5956.289 1.5953.279 05.9261.0677.943.2012.0142.1343.0214.93.0218.299 03.788 1.0856.832 3.2579.13 2.1712.298 5.0683.448 8.6923.448 2.021 0 3.803.375 5.346 1.123v3.773c1.7071.1983.5341.7975.481.7972.351 04.279.8425.784 2.527s2.257 3.8972.257 6.637c0 2.695.708 4.822 2.123 6.379 1.415 1.558 3.313 2.336 5.694 2.336 2.006 0 3.893.666 5.661.999v3.504zm16.73618.215c.644.4941.572.7412.785.7411.572 02.886.7413.942 2.224s1.583 3.5041.583 6.064v11.724h3.684v23h3.684v4.739h.09c.5241.617 1.3252.878 2.4033.785 1.078.906 2.2831.359 3.6161.359.958 0 1.692.105 2.201.314v3.82zm12.783 19.81c3.399 06.1131.0748.1423.2232.0292.1483.0434.9983.0438.546 03.863 1.0566.88 3.1679.052 2.1112.171 4.9643.257 8.5583.257 3.429 0 6.105 1.056 8.03 3.167 1.924 2.111 2.886 5.039 2.886 8.782 0 3.6691.037 6.6073.111 8.8162.075 2.2094.856 3.3138.345 3.313zm.2720.978c2.366 04.238.8055.615 2.4151.378 1.612.066 3.832.066 6.66 0 2.726.696 4.874 2.089 6.446s3.257 2.358 5.593 2.358c2.381 0 4.211.771 5.4922.313 1.281.542 1.923.736 1.926.581 02.875.645.0911.926.6481.2821.5593.1122.3375.4932.337zm14.849 19.608v3.953c2.006 1.482 4.215 2.224 6.626 2.224 3.234 0 4.8521.078 4.8523.234 0.614.1391.134.4161.561.277.427.651.8051.1231.134.472.3291.026.6251.662.887.637.2621.322.5352.055.821.019.4041.913.8122.6841.224.771.4121.415.8761.9321.393s.9061.1041.1681.763c.262.659.3931.43.3932.313 01.078.2472.033.7412.864s1.1531.527 1.9772.089c.823.562 1.763.984 2.8191.269 1.056.284 2.145.427 3.268.427 1.991 0 3.773.345 5.346 1.033v3.729c1.6921.1083.6391.6625.841.662.689 01.311.0791.864.236.554.1571.03.3781.426.663.397.285.704.625.921 1.022.217.397.326.835.326 1.314 0 .599.108 1.101.326 1.505.217.404.535.764.955 1.078.419.314.928.599 1.527.854.599.255 1.28.532 2.044.831 1.018.39 1.932.79 2.74 1.202.809.412 1.497.876 2.066 1.393.569.517 1.007 1.112 1.314 1.786.307.674.46 1.475.46 2.403 0 1.138.251 2.126.752 2.965.502.8391.172 1.5352.01 2.089.839.5541.805.9662.897 1.2351.093.272.239.4043.437.4042.366.0034.418.466.1551.373zm29.697 1.37c3.399 06.1131.0748.1423.2232.0292.1483.0434.9983.0438.546 03.863 1.0566.88 3.1679.052 2.1112.171 4.9643.257 8.5583.257 3.429 0 6.105 1.056 8.03 3.167 1.924 2.111 2.886 5.039 2.886 8.782 0 3.6691.037 6.6073.111 8.8162.075 2.2094.856 3.3138.345 3.313zm.2720.978c2.366 04.238.8055.615 2.4151.378 1.612.066 3.832.066 6.66 0 2.726.696 4.874 2.089 6.446s3.257 2.358 5.593 2.358c2.381 0 4.211.771 5.4922.313 1.281.542 1.923.736 1.926.581 02.875.645.0911.926.6481.2821.5593.1122.3375.4932.337zm27.60710.377c.719.4041.535.6062.448.6062.576 03.863 1.6253.863 4.874v3.548h5.391v3.145h5.391v19.855h3.661v19.855h3.931v3.145h3.931v3.729c02.411.6964.316 2.0895.716 1.3931.4 3.1292.1 5.2112.1 1.123 0 2.014.135 2.673.404v3.325zm12.873 30.591c.869.4792.014.7193.437.7194.028 06.0422.2466.0426.738v13.611h3.953v3.145h3.953v5.615l3.6841.19v6.805h5.795v3.145h5.795v12.96c0 1.542.262 2.643.786 3.302.524.659 1.393.988 2.605.988.928 0 1.729.254 2.403.764v3.144zm41.29.225h4.178l3.4149.029h13.656l3.212 9.029h4.2l12.35432.209h3.908l12.398 32.209zm8.82712.421l5.05413.724c.165.449.331.168.4942.156h.09c.15.914.322 1.632.517 2.156l5.009 13.724h11.164zm28.2819.523l13.611 18.8h13.477v3.144h18.89v1.146l13.61118.71h12.331v3.144h17.744v1.056zm22.531 21.944h3.684v3.639h.09c1.527 2.7853.894 4.1787.098 4.1785.48 08.2213.2648.2219.793v13.746h3.661v13.162c0 4.852 1.856 7.277 5.57 7.277 1.797 0 3.275.663 4.4361.988 1.161.325 1.7413.058 1.7415.2v13.251h3.684v23zm18.60119.271c.644.4941.572.7412.785.7411.572 02.886.7413.942 2.224s1.583 3.5041.583 6.064v11.724h3.684v23h3.684v4.739h.09c.5241.617 1.3252.878 2.4033.785 1.078.906 2.2831.359 3.6161.359.958 0 1.692.105 2.201.314v3.82zm21.655 8.692h16.239c.06 2.561.749 4.537 2.066 5.93 1.317 1.393 3.129 2.089 5.436 2.089 2.59 0 4.971.854 7.1432.561v3.459c2.021 1.4684.694 2.2018.019 2.2013.25 05.8031.0447.6593.1331.8572.0892.7855.0272.7858.816 03.579 1.0146.495 3.0438.749 2.0292.253 4.5483.38 7.5583.38s5.338.974 6.985 2.92c1.647 1.947 2.471 4.649 2.471 8.108v1.932zm3.7733.122c.0152.126.5283.7811.5394.9641.0111.1832.4151.7744.2111.7741.737 03.212.6224.425 1.8641.213 1.2431.962 2.8682.246 4.874h12.421zm34.4648.299h1v90h1v90z"/><path fill="#59B4D9" d="M597.026 128.479c6.343 4.85113.817 7.21321.238 7.21310.53 020.9434.72727.82413.72711.75715.358.85537.302 6.52249.064 6.3424.88 13.8247.209 21.2357.209 10.53 0 20.945 4.727 27.824 13.735 11.76 15.345 8.83 37.3026.519 49.052"/><path fill="#fff" d="M590.595 106.829c2.543 3.316 7.262 3.915 10.56 1.406.172.132.305.291.462.433 3.373 2.376 5.716 3.945 7.036 4.844.3911.012.6611.984.9382.9991.3951.0383.2812.496.0074.699.8952.352.6125.0971.0227.2412.3373.0256.4783.7939.7121.9283.5653.1987.4826.86411.61310.968 12.8346.902 21.9515.891 21.9515.8911.5221.9413.2283.6415.0495.1775.412.83613.819.74223.425 4.367l.003.004h.001c3.2013.3516.4596.9439.77810.7991.588.5083.139 1.1374.638 1.886 2.449 4.008 5.744 8.05 9.457 11.993l.024.024c3.096 2.1656.544 5.0599.724 8.423.406.433.797.8681.179 1.3041.9.3983.898.2815.765.3953.176.842.91512.3352.41415.1681.376 1.4422.662 2.9593.77 4.575.828 3.3821.063 8.259 1.379 14.1362.827 3.72.96 8.946.007 12.817.246.321.51.619.783.9031.29 4.3931.867 8.632.044 12.268l.661 1.255c1.679 2.154 3.788 3.968 5.825 5.612.2523.851.029.53 2.415.924 1.643.125 3.313.134 4.877.793.896.788 1.834 1.585 2.836 2.396 3.435 2.719 6.861 4.835 10.201 6.502.174 1.699.252 3.464 1.355 4.926 2.359 3.047 6.728 3.616 9.778 1.287.634.486 1.1361.073 1.5521.703 5.446 1.213 10.204 1.427 13.731 1.427.541 0 3.0483.411 4.4855.5262.148.4498.518 1.32517.2231.176.21.977.6121.9271.2572.7732.2112.8996.2543.5269.2671.5873.0261.6416.1953.6989.4636.287.66.5221.2921.0431.9031.566 1.9973.146 2.217.179.44510.572.401.4.794.802 1.221.2 3.2363.023 6.285.443 9.1287.385l.33.326.335.318.003.001c4.37 4.041 9.004 7.871 13.392 11.2931.162 2.461.98 5.459.786 7.767z"/><path fill="#55ADD3" d="M702.836 135.691c1.725 03.349.6724.5651.893l28.54428.543c1.2031.2031.8912.8641.8914.565 01.7.6893.363 1.8914.564l28.54428.543c1.2191.221 2.8411.893 4.5651.893 1.723 0 3.346.672 4.565 1.893l28.54 28.543c1.222 1.215 1.893 2.838 1.893 4.564s.671 3.3491.894 4.568l28.538 28.54c1.219 1.2212.843 1.8934.566 1.893"/><path fill="#fff" d="M721.894 95.221c3.024 05.474 2.455.474 5.472 0 1.109.335 2.138.903 3l10.841 10.841c.288.202.598.37.918.522v27.658c1.634.946 2.7452.694 2.7454.718 03.0232.455.4725.4745.4723.021 05.471 2.455.471 5.472 0 2.024 1.112 3.772 2.744 4.718v27.658c.307.146.608.302.885.494l10.85410.854c.552.854.8791.866.8792.958 03.0232.455.4725.4715.4723.024 05.474 2.455.474 5.472 0 3.023 2.45 5.472 5.474 5.472.627 0 1.221.127 1.784.322l11.41 11.41c.328.767.51 1.61.51 2.496 0 3.518 2.853 6.371 6.371 6.371 3.52 0 6.3712.853 6.3716.371 0.869.1761.697.4912.451l11.44211.441c.549.185 1.126.308 1.737.308 3.021 0 5.4712.45 5.4715.472 03.0232.4485.4735.4685.473z"/><rect x="711.244" y="77.211" transform="matrix(.707 .707 .707 .707 144.067 531.108)" opacity=".5" fill="#fff" enablebackground="new" width="3.532" height="28.946"/><rect x="678.208" y="89.936" transform="matrix(.707 .707 .707 .707 138.038 516.659)" opacity=".5" fill="#fff" enablebackground="new" width="28.947" height="3.533"/><path fill="#B8D432" d="M706.566 119.75c0 2.0941.7 3.7933.794 3.7932.096 03.7931.6983.7933.793s1.6973.793 3.7933.793c2.093 0 3.794 1.699 3.794 3.793"/><path fill="#B8D432" d="M705.878 81.636c0 1.6811.362 3.0443.044 3.0441.681 03.0441.3623.0443.044s1.3623.044 3.0443.044 3.044 1.362 3.044 3.044"/><path fill="#B8D432" d="M686.823 100.692c0 1.6811.365 3.0443.044 3.0441.681 03.0441.3623.0443.044s1.3623.044 3.0443.044c1.679.001 3.044 1.363 3.044 3.044"/><path fill="#B8D432" d="M724.937 100.692c0 1.6811.365 3.0443.045 3.044s3.0441.3623.0443.044 1.3643.044 3.0443.044c1.68.001 3.045 1.363 3.045 3.044"/><path opacity=".1" fill="#69c" enablebackground="new" d="M707.401 67.584c1.2191.2212.8411.8934.5651.8931.723 03.345.6724.564 1.893l28.544 28.543c1.204 1.2011.893 2.8641.893 4.564 0 1.701.689 3.364 1.893 4.565l16.16 16.161 30.444.9488.8878.885z"/><path fill="#3999C6" d="M803.512 75.254v50.873c0 5.282 11.823 9.564 26.405 9.564v60.437h26.405z"/><path fill="#59B4D9" d="M829.555 135.69h.362c14.582 0 26.4054.28 26.4059.563v50.873h26.767v60.436z"/><path fill="#fff" d="M856.322 75.254c0 5.28211.823 9.56326.405 9.563s26.4054.28126.4059.563 11.8239.563 26.4059.563 26.405 4.282 26.405 9.563"/><path fill="#7FBA00" d="M850.924 74.703c0 3.4879.405 6.3121.006 6.31s21.0082.82321.0086.31c03.485 9.4066.31 21.0086.31 11.601 0 21.006 2.825 21.006 6.31"/><path fill="#B8D432" d="M846.523 78.559c2.751.066 4.4022.402 4.4023.853 03.4879.4056.31121.0086.31111.601 021.007 2.82521.007 6.311 0 1.451 1.653 2.787 4.402 3.853 3.841.491 9.8422.453 16.6042.453 6.765.001 12.764.963 16.607 2.453"/><path fill="#fff" d="M846.983 116.504c1.413 1.1783.328 1.7695.815 1.769h8.298v21.643h7.871c2.478 0 4.377.452 5.683 1.389 1.223.879 1.836 2.109 1.836 3.68 0 1.252.447 2.3171.358 3.254.776.7751.709 1.312.858 1.624v.051c1.543.19 2.802.778 3.74 1.765.878.937 1.33 2.086 1.33 3.415.005 1.979.716 3.5292.131 4.696m20.2231.275c2.077 2.0314.88 3.0448.378 3.044h7.661v21.643h7.661c7.685 0 11.528 3.498 11.528 10.538 0 3.3651.039 6.0593.15 8.061"/><path fill="#3999C6" d="M817.982 100.58h2.401v13.741h2.429c2.134 0 3.788.668 5.0121.948 1.1721.281 1.7652.988 1.7655.148 02.027.5933.6251.7384.8081.2011.2232.8821.8375.0671.837"/><path fill="#59B4D9" d="M842.233 104.613c.586.51.8791.178.8792.006 01.6051.1722.4033.552.403h1.834v5.128h2.16c.987 0 1.787.247 2.345.719"/><path fill="#59B4D9" d="M843.035 109.703c.642.4781.516.7472.644.747h2.667v5.708h2.641c1.123 0 2.027.266 2.695.8.613.535.9311.224.9312.134.006.854.3141.548.9562.027"/><path fill="#A0A1A2" d="M922 127.851c0 1.4.98 2.66 2.66 2.66h64.68c1.4 0 2.66.98 2.662.66v46.34h70v46.34z"/><path fill="#7A7A7A" d="M989.34 70.871h64.68c1.68 02.66 1.262.66 2.66v7.98h70v7.98c01.4.982.662.662.66"/><rect x="948.32" y="86.131" fill="#fff" width="17.64" height="10.64"/><rect x="948.32" y="100.551" fill="#FCD116" width="17.64" height="10.64"/><rect x="969.32" y="100.551" fill="#FCD116" width="17.64" height="10.64"/><rect x="969.32" y="86.131" fill="#fff" width="17.64" height="10.64"/><rect x="927.32" y="86.131" fill="#fff" width="17.64" height="10.64"/><rect x="927.32" y="100.551" fill="#fff" width="17.64" height="10.64"/><rect x="927.32" y="114.831" fill="#FCD116" width="17.64" height="10.64"/><rect x="948.32" y="114.831" fill="#FCD116" width="17.64" height="10.64"/><rect x="969.32" y="114.831" fill="#FCD116" width="17.64" height="10.64"/><path opacity=".2" fill="#fff" enablebackground="new" d="M924.66 70.871c1.26 02.66 1.262.66 2.66v54.32c0 1.4 1.4 2.66 2.66 2.66h2.94l55.4459.64h58.38z"/></svg>
