<svg xmlns="http://www.w3.org/2000/svg" viewBox="0 0 1140 360" enablebackground="new 0 0 1140 360"><path fill="#56B4D9" d="M0 0h1140v360h1140v360z"/><path fill="#fff" d="M163.29 114.514h3.996l3.2668.637h13.063l3.072 8.637h4.018l11.81630.809h3.738l11.861 30.809zm8.44311.881l4.83413.127c.158.43.3151.117.4732.063h.086c.144.874.308 1.562.494 2.063l4.791 13.127h10.678zm10.921 10.635v4.254c.487.43 1.07.816 1.751 1.16.68.344 1.396.634 2.148.87s1.507.419 2.267.548c.759.129 1.461.193 2.105.193 2.22 0 3.878.412 4.9741.235s1.6442.009 1.6443.556c0.831.1831.554.5482.17s.871.1781.5151.6871.407.9952.2881.4611.83.9562.8471.472c1.074.5442.0771.0963.0081.654.931.5591.741.1752.4281.848s1.2291.4361.6222.288c.394.853.5911.852.5912.997 01.403.3082.625.9243.663.6161.038 1.4251.895 2.4282.567 1.002.673 2.1451.175 3.4271.504 1.282.329 2.589.494 3.921.494 3.036 0 5.249.365 6.639 1.096v4.061c1.8191.2614.1541.8917.0041.891.788 01.576.0822.363.247.788.1651.49.4342.105.806.616.3721.117.8531.504 1.439s.58 1.304.58 2.148c0 .788.146 1.468.44 2.041.293.573.727 1.096 1.3 1.568.573.473 1.271.931 2.095 1.375.823.444 1.772.931 2.847 1.461 1.103.544 2.148 1.117 3.137 1.719s1.854 1.268 2.6 1.998c.745.73 1.335 1.54 1.772 2.428.437.888.655 1.905.655 3.051 0 1.519.297 2.804.892 3.856.595 1.0531.396 1.9082.406 2.567s2.174 1.1353.491 1.429c1.318.2932.707.444.168.44.487 01.089.041.805.118.716.0791.447.1932.191.344.745.151.45.3372.116.559s1.202.4671.602.739zm27.80810.399v11.645h3.609v30.809h8.465c3.294 0 5.847.802 7.659 2.406 1.812 1.604 2.718 3.867 2.718 6.789s1.006 5.3133.019 7.176c2.013 1.8624.73 2.7938.153 2.793h4.061zm015.898v12.633h3.781c2.492 0 4.394.569 5.7041.708s1.9662.746 1.9664.823c04.0672.4066.1027.2196.102h4.232zm21.169 28.015c.659 01.221.2361.687.709.466.473.6981.038.6981.697s.2321.229.6981.708c.465.479 1.027.72 1.687.72.673 0 1.246.24 1.719.72s.709 1.049.709 1.708.236 1.225.709 1.6971.047.7091.719.709zm33.007.472h4.426l15.85524.557c.401.616.731.261.9881.934h.129c.114.659.172 2.069.172 4.232v22.258h3.609v30.808h4.684l15.426 24.17c.645 1.003 1.06 1.69 1.246 2.063h.086c.144.888.2152.399.2154.533v21.7h3.609v30.809zm23.79 0h16.328v30.809h15.641v3.266h12.031v10.248h11.129v3.244h11.129v10.785h12.719v3.266zm23.53327.543h8.895v27.543h3.609v27.543h8.873v3.266h21.377v3.266zm36.623 26.254c2.277 1.2035.113 1.8058.508 1.8054.383 07.8921.41110.5274.2322.6362.8213.9536.5243.95311.107 04.927 1.4828.909 4.44711.945s6.7254.555 11.2794.555c2.922 0 5.342.423 7.262 1.268v3.846c2.2061.2314.6411.8487.3051.8483.538 06.406 1.1828.604 3.5452.199 2.3633.298 5.5213.298 9.475 0 3.753 1.027 6.742 3.083 8.97 2.055 2.228 4.751 3.341 8.089 3.341 3.094 0 5.772.688 8.0352.063v3.5zm14.38 1.804c3.251 05.8481.0277.7883.0831.9412.0562.9114.782.9118.175 03.695 1.016.581 3.0298.658s4.7483.115 8.1863.115c3.28 0 5.84 1.01 7.681 3.029 1.84 2.02 2.761 4.819 2.761 8.4 0 3.509.992 6.322.976 8.4331.984 2.1134.645 3.1697.982 3.169zm.25820.066c2.263 04.054.775.371 2.311.318 1.541.977 3.6631.977 6.37 0 2.606.666 4.662 1.998 6.166s3.115 2.256 5.35 2.256c2.277 0 4.028.737 5.2532.213s1.8373.573 1.8376.295c02.75.6124.871.8376.359s2.9762.2355.2532.235zm27.185 1.117c.616.4731.504.7092.664.7091.504 02.761.7093.771 2.127s1.515 3.3521.515 5.801v11.215h3.523v22h3.523v4.533h.086c.5011.547 1.2682.754 2.2993.62s2.1841.3 3.4591.3c.917 0 1.618.101 2.105.301v3.652zm20.89 8.315h15.533c.057 2.449.716 4.34 1.977 5.672 1.26 1.332 2.993 1.998 5.199 1.998 2.478 0 4.755.816 6.8322.449v3.309c1.934 1.4034.49 2.1057.67 2.1053.108 05.55.9997.3262.9971.7761.9982.6644.8092.6648.433 03.423.976.213 2.9118.368 1.942.155 4.3513.233 7.2293.233s5.106.931 6.682 2.793c1.575 1.862 2.363 4.447 2.363 7.756v1.847zm3.612.987c.0152.034.5053.6161.4724.748s2.311.6974.0281.697c1.662 03.072.5954.232 1.783s1.876 2.7432.148 4.662h11.88zm40.69939.408h1v74h1v74zm83.592 54.095h1.842l7.16524.235c.3591.243.5622.253.6063.032h.09c.045.659.277 1.655.696 2.987l7.637 24.28h1.842l9.56832.209h2.493l7.345 25.808c.329 1.168.562 2.119.696 2.853h.09c.09.554.3521.505.7862.853l7.95125.808h1.123l7.3 25.808c.344 1.198.576 2.149.696 2.853h.09c.075.419.194.898.3591.438l7.54727.223h2.403l9.433 32.209zm14.44528.795c.449 0.846.1651.19.494.345.329.517.749.5171.258 0.494.176.895.5281.202.352.307.745.46 1.179.46.464 0 .872.15 1.224.449.352.3.528.704.528 1.213 0 .479.172.891.517 1.235.344.345.756.5171.235.517zm1.011 28.795v23h2.066v23h2.066zm24.239 0v13.387c05.5251.9928.2885.9758.2882.216 04.036.8135.458 2.4371.423 1.6252.134 3.6352.134 6.031v13.207h2.066v23h2.066v4.178h.09c1.6773.159 4.2974.739 7.8614.739 2.485 0 4.387.828 5.705 2.482 1.317 1.655 1.977 4.017 1.977 7.086v13.993h2.066zm24.485 0v4.178h.09c.748 1.4531.855 2.6053.324 3.4591.467.8543.122 1.284.963 1.282.83 05.141.0336.9293.11.792.0662.6844.9192.6848.558 03.713.9776.719 2.9319.018 1.9542.298 4.4883.448 7.6033.448 3.445 0 5.9 1.415 7.367 4.245h.09v14.733h2.066v34.051h2.067zm013.993c02.141.6783.9572.0315.4471.3551.493.182.2355.472.2352.411 04.402.9255.975 2.7741.572 1.852.358 4.3912.358 7.625 0 3.175.708 5.626 2.123 7.356s3.238 2.594 5.469 2.594c2.62 0 4.649.812 6.0862.437 1.4381.625 2.1563.605 2.1565.941v4.289zm17.838 14.554c3.354 06.0091.1047.9623.3131.9552.2082.9325.082.9328.614 03.818 1.0216.806 3.0668.962 2.0432.156 4.7353.234 8.0743.234 3.279 0 5.87 1.071 7.771 3.212 1.901 2.142 2.853 5.106 2.853 8.895 0 3.579.97 6.4772.909 8.6921.938 2.2164.592 3.3247.961 3.324zm.15722.236c2.71 04.87.9146.48 2.741.609 1.8272.414 4.3652.414 7.614 0 3.01.786 5.428 2.358 7.255s3.721 2.74 6.446 2.74c2.771 0 4.904.898 6.4012.695s2.2464.29 2.2467.479c03.279.7455.7952.2357.5471.4891.7523.5962.6286.3222.628zm35.087 21.675h1.932l5.00917.34c.135.479.2551.123.3591.932h.112c.03.345.18.974.449 1.887l5.615 17.385h1.932l6.9423h2.291l5.346 18.351c.135.479.239 1.123.314 1.932h.18c.03.434.1721.078.4271.932l5.8418.351h1.415l5.211 18.351c.12.435.225 1.078.314 1.932h.18c0.434.1271.078.3821.932l5.45818.351h2.134l7.144 23zm9.6161.011v2.493c.778.674 1.722 1.206 2.83 1.595 1.108.39 2.066.584 2.875.584 3.608 0 5.4131.475 5.4134.425 01.018.3961.8871.192.605s2.0811.463.8632.224c2.201.9583.7471.954.6382.976.8921.0251.3372.2721.3373.74 01.872.7153.384 2.1464.537 1.431.153 3.1921.729 5.2891.729 1.977 0 3.669.404 5.076 1.213v2.336c1.7071.1083.4741.6625.3011.6621.513 02.732.3933.661 1.179s1.393 1.8081.393 3.066c0 1.093.292 1.98.876 2.662.584.682 1.872 1.464 3.863 2.347 2.396 1.078 4.043 2.078 4.941 2.999s1.348 2.145 1.348 3.672c0 1.827.686 3.3352.055 4.5261.371 1.193.261 1.7865.672 1.7862.215.0024.064.5265.5471.574zm80.185 1.011v32.209h2.224v30.188h12.915v2.021h15.139zm20.80228.795c.449 0.846.1651.19.494.345.329.517.749.5171.258 0.494.176.895.5281.202.352.307.744.46 1.179.46.464 0 .872.15 1.224.449.353.3.528.704.528 1.213 0 .479.172.891.517 1.235.345.345.756.5171.235.517zm1.011 28.795v23h2.066v23h2.066zm24.238 0v13.387c05.5251.9918.2885.9758.2882.216 04.035.8135.458 2.4371.423 1.6252.134 3.6352.134 6.031v13.207h2.066v23h2.066v4.178h.09c1.6773.159 4.2984.739 7.8614.739 2.485 0 4.388.828 5.705 2.482 1.317 1.655 1.977 4.017 1.977 7.086v13.993h2.066zm23.34 0v4.178h.09c1.603 3.164.073 4.7397.412 4.7395.436 08.1533.4218.15310.265v13.296h2.089v12.78c0 3.115.513 5.376 1.539 6.783 1.025 1.408 2.639 2.111 4.84 2.111 2.142 0 3.875.786 5.1992.358 1.3261.572 1.9883.668 1.9886.289v13.027h2.066v23h2.066zm15.72711.276l7.502 11.275h2.628l6.0649.703h.09l.809 1.28c.104.18.232.382.382.606l5.076 7.816h2.516l7.68211.237.54711.77h2.426l5.121 8.243c.659 1.063 1.056 1.722 1.19 1.977h.09l1.1461.887 5.3468.333h2.426l7.817 11.726zm85.656 11.837c4.552 08.181.51210.8834.5372.7023.0244.0546.9554.05411.792 05.136 1.3899.25 4.16712.342 2.7773.092 6.5694.638 11.3764.638 4.343 0 7.857 1.486 10.546 4.458 2.688 2.973 4.031 6.87 4.031 11.691 0 5.3311.378 9.5234.133 12.578s6.438 4.58211.05 4.582zm.22431.288c3.743 06.824 1.3559.242 4.0652.419 2.713.628 6.2593.628 10.646 0 4.433 1.146 7.962 3.437 10.59s5.346 3.942 9.164 3.942c3.983 0 7.1351.299 9.4563.897 2.3212.598 3.4816.218 3.48110.86 04.5521.1358.1043.40210.6582.272.5515.3573.8289.2663.828zm19.702 29.581v2.538c2.306 1.468 4.642 2.201 7.008 2.201 2.516 0 4.425.52 5.7281.561s1.9542.497 1.9544.369c01.647.4382.9611.3133.942.877.982.7742.3175.6944.0093.2651.9015.3313.4936.1994.773s1.3032.7591.3034.436c02.276.8844.208 2.655.795 1.7671.587 4.1252.381 7.0752.381 1.917 0 3.833.322 5.75.966v2.336c1.887.8543.91.286.0421.282.187 03.919.5545.2 1.6621.279 1.1081.92 2.5161.92 4.223 0 1.647.438 2.958 1.314 3.931.875.974 2.766 2.299 5.671 3.976 3.01 1.707 5.013 3.223 6.009 4.548.995 1.325 1.493 2.849 1.493 4.571 0 2.471.857 4.4852.571 6.0421.715 1.5584.137 2.3367.267 2.3361.108 02.385.1723.829.5171.446.3452.551.7423.3141.191zm40.5 1.146l7.41212.286c.464.764.8611.5121.192.246h.112c.404.824.831 1.5721.28 2.246l7.547 12.286h2.673l10.17516.2399.56815.97h2.673l7.21 12.106c.374.629.764 1.348 1.168 2.156h.09l1.192.156 7.16512.106h2.583l9.658 15.925 9.883 16.284h2.697z"/></svg>
