<svg xmlns="http://www.w3.org/2000/svg" viewBox="0 0 1140 360" enablebackground="new 0 0 1140 360"><path fill="#68217A" d="M0 0h1140v360h1140v360z"/><polygon fill="#E44D26" points="625.457,132.801 619.654,67.717 683.416,67.717 677.607,132.791 651.496,140.03"/><polygon fill="#F16529" points="651.535,134.497 672.634,128.648 677.598,73.039 651.535,73.039"/><polygon fill="#EBEBEB" points="651.535,97.178 640.973,97.178 640.243,89.004 651.535,89.004 651.535,81.021 651.508,81.021 631.519,81.021 631.71,83.163 633.672,105.16 651.535,105.16"/><polygon fill="#EBEBEB" points="651.535,117.909 651.5,117.918 642.61,115.517 642.042,109.151 637.722,109.151 634.029,109.151 635.147,121.685 651.499,126.224 651.535,126.214"/><path d="M625.587 50.03h4.057v4.008h3.711v4.008h4.057v12.137h4.057v4.064h3.711v4.064h4.057v12.137zm17.158 4.025h3.571v4.025h11.201v4.025h3.573v8.112h4.057v8.112zm9.4074.025h4.23l2.602 4.264 2.5994.264h4.231v12.137h4.04v6.016l2.791 4.315h.07l2.7934.315v6.016h3.969v12.137zm15.682 0h4.058v8.125h5.705v4.012h9.762v12.137z"/><polygon fill="#fff" points="651.508,97.178 651.508,105.16 661.337,105.16 660.41,115.512 651.508,117.915 651.508,126.22 667.872,121.685 667.992,120.336 669.868,99.321 670.062,97.178 667.911,97.178"/><polygon fill="#fff" points="651.508,81.021 651.508,85.979 651.508,88.984 651.508,89.004 670.763,89.004 670.763,89.004 670.789,89.004 670.949,87.209 671.313,83.163 671.503,81.021"/><polygon points="777.75,55.803 777.75,51.656 767.862,51.656 767.862,63.777 777.75,63.777 777.75,59.631 772.008,59.631 772.008,55.803"/><polygon points="791.785,51.656 781.896,51.656 781.896,55.913 786.023,59.631 781.896,59.631 781.896,63.777 791.785,63.777 791.785,59.74 788.034,55.803 791.785,55.803"/><polygon points="806.138,51.656 796.25,51.656 796.25,55.913 800.217,59.631 796.25,59.631 796.25,63.777 806.138,63.777 806.138,59.74 802.228,55.803 806.138,55.803"/><polygon fill="#0071BC" points="760.908,134.424 755.103,69.309 818.897,69.309 813.085,134.413 786.961,141.656"/><polygon fill="#29ABE2" points="787.054,136.117 808.137,130.316 813.077,74.732 787.054,74.732"/><polygon fill="#B3B3B3" points="768.392,98.655 769.091,106.629 787.054,98.655 787.054,90.668"/><polygon fill="#E6E6E6" points="806.948,82.142 787.054,90.668 787.054,98.655 806.262,90.116"/><polygon fill="#E6E6E6" points="787.054,119.519 786.992,119.529 778.084,117.136 777.502,110.776 769.485,110.776 770.603,123.307 786.99,127.844 787.054,127.829"/><polygon fill="#fff" points="787.054,98.655 787.054,106.629 796.807,106.629 795.92,117.055 787.054,119.526 787.054,127.835 803.386,123.298 805.536,98.655"/><polygon fill="#E6E6E6" points="787.054,98.655 768.392,98.655 769.091,106.629 787.054,106.629"/><polygon fill="#E6E6E6" points="787.054,90.116 787.054,82.142 786.973,82.142 766.974,82.142 767.682,90.116"/><polygon fill="#fff" points="787.054,82.142 787.054,90.016 787.054,90.116 806.262,90.116 806.948,82.142"/><rect x="882.25" y="64.25" fill="#F0DB4F" width="70" height="70"/><path fill="#353630" d="M929.272 118.938c1.41 2.302 3.244 3.994 6.489 3.994 2.726 0 4.4671.362 4.4673.244 02.2561.7893.0544.7894.367l1.644.706c4.7472.0227.94.5567.99.911 04.933 3.7598.689 9.6338.689 4.182 0 7.189 1.456 9.356 5.267l5.122 3.289c1.1282.0222.3442.8194.2332.8191.927 03.148 1.2223.148 2.819 0 1.973 1.222 2.772 4.044 3.994l1.644.704c5.589 2.397 8.744 4.84 8.744 10.333 0 5.9224.652 9.16710.9 9.1676.109 010.0562.91111.9876.727l5.3463.104zm23.236.57c1.033 1.833 1.973 3.383 4.233 3.383 2.161 0 3.524.846 3.5244.133v22.367h6.578v22.456c0 6.8113.993 9.9119.822 9.9115.267 08.3172.7269.8686.008l5.3553.242z"/><path d="M296.374 83.453c0 .708.246 1.296.737 1.763.494.471.076.7041.752.704.693 01.277.2271.752.681.477.452.7151.048.7151.786 0.66.2341.234.7031.717.468.484 1.057.727 1.765.727.706 0 1.299.239 1.775.715.475.477.713 1.054.713 1.729zm177.29 0c0 .708.245 1.296.737 1.763.494.471.076.7041.752.704.693 01.277.2271.752.681.477.452.7151.048.7151.786 0.66.2341.234.7031.717.468.484 1.057.727 1.765.727.706 0 1.299.239 1.775.715.475.477.713 1.054.713 1.729zm184.791.697l12.216 33.052h4.241l12.00833.052h4.31l9.842 28.212h.092l10.07228.212h4.149zm6.822 33.052h3.78v23.602h3.78v23.602zm19.1736.316c0 2.044.788 3.7032.362 4.9781.575 1.2763.669 1.9136.281 1.9132.228 04.18.4765.8541.429v4.056c1.859 1.506 3.903 2.258 6.131 2.258 2.996 0 4.4941.098 4.4943.296 0.891.2921.617.8762.178.584.5611.9131.3173.9882.272.09.8913.5651.8484.4252.87.8611.0221.2912.3781.2914.068 01.951.7843.58 2.3514.886s3.5571.959 5.971.959c1.859 0 3.542.369 5.048 1.106v3.803c1.5371.1213.3191.6825.3471.6821.244 02.247.3083.008.922.761.6141.141 1.4061.141 2.374 0 1.045.292 1.848.876 2.408.584.561 1.79 1.226 3.619 1.994 2.243.953 3.818 1.951 4.725 2.996.906 1.046 1.359 2.36 1.359 3.942zm23.041 6.316h3.78v3.734h.092c1.567 2.8733.987 4.317.26 4.315.639 08.4593.3578.45910.072v14.106h3.78v13.507c0 4.964 1.905 7.444 5.716 7.444 1.875 0 3.396.68 4.5642.04 1.1681.36 1.7523.13 1.7525.313v13.598h3.78v23.602zm22.716 0h3.78v3.688h.092c1.644 2.8434.064 4.2647.26 4.2642.274 04.095.6185.4621.8551.3681.2372.0512.92.0514.99 04.394 2.5976.961 7.7917.698l7.076.991c03.9951.6215.9934.8635.9932.843 05.409.967.698 2.881v3.872c.692.522 1.8751.026 3.5491.51 1.675.484 3.165.726 4.472.726 5.547 0 8.321 2.943 8.321 8.828v15.35zm3.7811.94l5.716.807c1.952.2763.319.7414.103 1.394.784.6531.176 1.711.176 3.17 0 1.183.422 2.132 1.268 2.846.845.714 1.928 1.071 3.25 1.071 1.875 0 3.423.66 4.6441.982 1.2221.321 1.8322.973 1.8324.956v2.35zm13.13 11.94h3.78v34.942h3.78v34.942zm29.8758.344c0 2.781.983 4.9642.95 6.5461.967 1.5834.641 2.3748.021 2.3741.23 02.616.2044.16.6111.544.4072.639.8333.2841.279v4.587c.937.845 2.17 1.552 3.699 2.121s2.954.853 4.276.853c4.241 0 6.3611.652 6.3614.956 01.383.4532.571.363.561.907.9912.7662.2945.5783.9072.7191.5364.6252.9965.7164.3791.0911.3831.6373.0651.6375.048 02.612.9764.736 2.9276.373 1.9511.637 4.4722.455 7.562.455 2.965 0 5.132.392 6.5 1.176v4.333c1.7211.3523.9572.0286.7072.0281.829 03.323.4574.483 1.3711.16.9141.74 2.1241.74 3.63 0 1.091.173 1.967.519 2.627.346.661.93 1.314 1.752 1.959.822.646 2.209 1.514 4.16 2.604 2.919 1.629 4.963 3.166 6.131 4.61 1.167 1.446 1.751 3.105 1.751 4.98zm15.151 8.113c.907.5072.09.7613.549.7614.118 06.1772.326.1776.961v13.967h4.057v3.204h4.057v5.762l3.781.221v6.983h5.946v3.204h5.946v13.322c0 1.583.269 2.709.807 3.377.538.668 1.437 1.003 2.697 1.003.937 0 1.752.254 2.443.761v3.226zm22.793.231h3.78v3.734h.092c1.567 2.8733.987 4.317.26 4.315.639 08.4593.3578.45910.072v14.106h3.78v13.507c0 4.964 1.905 7.444 5.716 7.444 1.874 0 3.396.68 4.5632.04 1.1681.36 1.7523.13 1.7525.313v13.598h3.78v23.602zm25.871 0h3.78v4.011h.092c1.752 3.0584.456 4.5878.113 4.5872.981 05.3551.0717.1223.2151.7672.1432.6515.0052.6518.586 03.902.987.037 2.9399.404 1.9592.366 4.5833.549 7.8713.549 3.227 0 5.585 1.276 7.076 3.826h.092v14.59h3.78v34.942zm3.7810.672v3.48c01.951.653.5721.9484.8631.2991.2912.8781.9364.7371.9362.274 04.079.8415.416 2.524s2.005 4.0152.005 6.995c0 2.705.63 4.844 1.89 6.419 1.26 1.575 2.958 2.363 5.094 2.363 2.074 0 3.78.752 5.1172.258 1.3371.508 2.0053.428 2.0055.764zm13.282 10.672h3.78v23.602h3.78v23.602zm27.53611.893c0 3.7491.064 6.7653.192 9.0472.128 2.2824.982 3.4238.563 3.4233.488 06.2731.118.3553.332.0822.223.1235.1433.1238.77 03.903 1.0686.987 3.2049.254 2.1352.266 5.0783.4 8.8283.4 3.503 0 6.246 1.095 8.228 3.285 1.982 2.188 2.973 5.188 2.973 8.999zm3.872.138c02.965.6575.241.9716.8231.3141.5823.1922.3745.6352.3742.428 04.349.8115.762 2.4321.414 1.6212.12 3.9062.12 6.857 0 2.828.71 5.036 2.132 6.626 1.421 1.59 3.338 2.385 5.751 2.385 2.458 0 4.341.784 5.6472.351 1.3041.566 1.9583.817 1.9586.752zm266.80732.32l21.866 21.86613.94610.8475.509 2.754v27.547l5.509 2.755 13.94610.848 21.866 21.866 13.7745.509v44.075l13.7745.509zm35.812 35.811v16.528l8.265 8.2658.265 8.263zm21.2518.263l14.56111.326v22.651l14.56111.325z" fill="#fff"/><rect x="548.5" y="61" fill="#fff" width="1" height="74"/></svg>
